<svg version="1.1" id="Layer_1" xmlns="http://www.w3.org/2000/svg" xmlns:xlink="http://www.w3.org/1999/xlink" x="0px" y="0px"
	 width="100%" viewBox="0 0 1024 1024" enable-background="new 0 0 1024 1024" xml:space="preserve">
<path fill="#000000" opacity="1.000000" stroke="none" 
	d="
M241.349640,637.618469 
	C218.817947,606.752136 202.259293,573.745422 197.966766,535.503357 
	C195.851227,516.655945 193.937180,497.791443 192.743912,478.864716 
	C192.498688,474.974792 190.890640,471.084259 192.210175,467.079895 
	C194.578339,466.948792 194.935181,468.894409 195.811722,470.167725 
	C204.590057,482.919250 212.537186,496.283295 223.280701,507.584564 
	C225.108566,509.507324 227.072037,511.368591 229.227402,512.900024 
	C235.988861,517.704163 241.628571,515.951965 244.538132,508.204559 
	C247.621140,499.995361 247.117249,491.495667 246.169144,483.028961 
	C244.245514,465.850677 240.352203,448.963165 239.488297,431.596863 
	C238.326050,408.232819 244.203506,386.793823 254.912918,366.346100 
	C265.850220,345.463165 279.556732,326.379181 293.128906,307.205902 
	C293.837891,306.204315 294.425751,304.808563 296.196533,304.854584 
	C297.852356,306.672058 297.023682,308.925323 297.050781,310.975311 
	C297.167267,319.787201 296.264038,328.662048 298.271576,337.361237 
	C300.618744,347.532104 306.429657,349.924469 315.039612,344.195709 
	C339.836639,327.696686 363.257233,309.640869 381.096191,285.309723 
	C392.929047,269.170502 399.773499,250.870514 404.693390,231.701782 
	C406.554840,224.449097 408.499573,217.217804 410.400513,209.975220 
	C410.822510,208.367523 411.151245,206.721085 412.489166,205.514206 
	C414.766479,205.432587 415.442993,207.457413 416.592529,208.746597 
	C431.367004,225.315872 446.651978,241.327148 465.194000,253.832840 
	C481.284515,264.685150 498.500214,271.947845 518.435669,270.737823 
	C532.429626,269.888458 545.005676,264.926086 556.798523,257.684845 
	C576.955688,245.307571 592.939148,228.374115 608.084961,210.536942 
	C609.270508,209.140717 610.441406,207.731003 611.666138,206.369843 
	C611.979980,206.020996 612.473328,205.833618 612.943481,205.534332 
	C615.288208,206.364639 615.287720,208.605072 615.797852,210.400101 
	C619.981262,225.121246 623.333191,240.084259 628.673950,254.467560 
	C637.107666,277.180573 651.451355,295.788879 669.120178,311.954987 
	C682.044800,323.780334 696.052429,334.270569 710.676758,343.922302 
	C719.657776,349.849548 725.270386,347.841705 727.780212,337.261292 
	C729.784180,328.813049 730.053040,320.131989 729.307800,311.453430 
	C729.114746,309.205566 728.476562,306.914642 729.470642,304.946167 
	C730.898193,304.359711 731.452332,305.164154 731.894348,305.775360 
	C748.883484,329.265717 765.929688,352.697540 777.557190,379.537598 
	C787.643372,402.819824 788.689331,426.872253 784.917175,451.545349 
	C782.707214,466.000336 779.315613,480.321564 779.386108,495.066467 
	C779.411011,500.279602 780.226562,505.370422 782.602356,510.077545 
	C785.500488,515.819397 789.809204,517.119690 795.387695,513.841858 
	C800.504761,510.835114 804.301392,506.346130 807.952332,501.801697 
	C815.892639,491.918182 822.874573,481.350555 829.749268,470.712616 
	C830.695679,469.248047 831.372253,467.464630 833.973511,466.712189 
	C834.740784,473.541412 833.628418,479.949982 833.123596,486.276489 
	C831.880432,501.857635 830.125977,517.400208 828.437256,532.943115 
	C825.332825,561.516846 816.489563,588.131897 801.150330,612.535828 
	C795.746765,621.132568 790.868896,630.068604 784.374207,637.940796 
	C783.527100,638.967590 782.714539,640.054260 781.717590,640.919128 
	C779.988892,642.418701 778.269836,644.537109 775.665833,643.551697 
	C773.133911,642.593628 772.891235,640.017334 772.676697,637.666992 
	C771.610535,625.989563 772.895142,614.352234 774.151306,602.820251 
	C779.371094,554.898987 773.145996,508.697662 753.160095,464.793335 
	C721.151733,394.478424 668.047607,346.967255 595.100647,321.946045 
	C557.483276,309.043091 518.672913,306.098877 479.251160,311.113770 
	C419.032532,318.774231 367.744049,344.773865 325.258453,387.713043 
	C290.610413,422.731018 267.963684,464.656982 256.959473,512.818665 
	C251.884964,535.027893 249.353119,557.458313 250.414581,580.193420 
	C251.097198,594.814453 252.562302,609.400085 253.745834,623.995972 
	C254.137878,628.830933 254.304352,633.628052 253.425934,638.436584 
	C253.023697,640.638489 252.685303,642.872070 250.271988,643.665039 
	C248.067184,644.389587 246.464371,642.897400 244.998047,641.531128 
	C243.782959,640.398926 242.710770,639.113464 241.349640,637.618469 
z"/>
<path fill="#000000" opacity="1.000000" stroke="none" 
	d="
M420.045349,466.049622 
	C395.033051,488.513580 379.239197,515.801636 373.163269,548.614136 
	C372.102997,554.340027 369.682404,556.297485 363.931000,556.300171 
	C332.441345,556.314819 300.951691,556.313599 269.462097,556.262268 
	C262.405884,556.250732 259.801971,553.344910 260.571289,546.328369 
	C266.349274,493.630402 286.553192,447.215942 321.215332,407.076752 
	C348.542206,375.431885 381.759308,352.049286 420.594269,336.817383 
	C443.473389,327.843628 467.261780,322.569031 491.863770,320.506866 
	C525.695374,317.671112 558.806824,321.059235 590.868713,331.814514 
	C666.375916,357.143585 719.151001,407.122192 749.403259,480.740997 
	C758.113525,501.937378 763.379150,524.092712 765.379028,546.955994 
	C765.951721,553.504150 763.379944,556.235962 756.806885,556.249146 
	C725.150757,556.312500 693.494385,556.313477 661.838196,556.272644 
	C656.169861,556.265320 653.958069,554.169922 652.813660,548.331238 
	C644.648315,506.671112 622.660156,474.367249 586.483826,452.222748 
	C557.961670,434.763580 526.886597,428.390320 493.573730,432.980896 
	C465.889374,436.795837 441.645508,447.984619 420.045349,466.049622 
M507.535278,417.675232 
	C515.687317,417.743103 523.818237,417.571289 531.963745,418.656860 
	C565.335388,423.104492 594.521729,436.363403 619.209106,459.360718 
	C642.021973,480.611877 657.200317,506.339172 664.558167,536.648071 
	C665.308350,539.738220 666.124634,542.155945 670.224609,542.136536 
	C695.376770,542.017334 720.530090,542.054199 745.682495,542.157043 
	C750.078491,542.174988 750.956360,540.468689 750.265320,536.307556 
	C741.248352,482.010803 717.024353,435.760132 676.717712,398.255951 
	C631.626160,356.299530 577.849548,335.215576 516.464722,333.458618 
	C497.769592,332.923492 479.259857,335.258759 460.986572,339.295410 
	C414.107117,349.651245 373.901642,372.264191 340.624237,406.614899 
	C305.576324,442.793121 283.997467,486.056244 275.949036,535.921814 
	C275.030609,541.612000 275.232330,542.085876 280.865662,542.093811 
	C305.528809,542.128662 330.192322,542.039673 354.854980,542.152039 
	C358.709656,542.169556 360.479980,540.760498 361.379852,537.005737 
	C369.025513,505.105316 385.128571,478.168701 409.786652,456.557892 
	C437.440521,432.321564 469.749908,419.326355 507.535278,417.675232 
z"/>
<path fill="#000000" opacity="1.000000" stroke="none" 
	d="
M528.811035,827.158264 
	C481.930084,829.442688 437.817047,820.617554 396.505768,799.200500 
	C355.675812,778.033081 322.845856,747.951477 298.334076,708.962280 
	C294.082520,702.199646 290.144470,695.221436 286.401184,688.162720 
	C282.169098,680.182312 285.007355,675.656128 293.937775,675.650879 
	C328.437042,675.630432 362.936310,675.624695 397.435577,675.613281 
	C398.102234,675.613037 398.788147,675.714600 399.432648,675.594543 
	C409.278137,673.760803 416.481293,677.921021 424.114105,684.049561 
	C456.254059,709.855530 493.031342,719.899841 534.011780,714.003052 
	C562.234070,709.942017 586.684875,697.914734 607.972229,679.200073 
	C610.745178,676.762268 613.613464,675.268188 617.354187,675.282776 
	C655.183533,675.430420 693.013062,675.529602 730.842529,675.646301 
	C732.341919,675.650940 733.859436,675.553772 735.337219,675.745667 
	C740.946899,676.473877 743.054749,681.260132 740.113464,687.155151 
	C731.976257,703.464050 722.158203,718.724426 710.667236,732.867126 
	C682.558533,767.462524 647.859070,793.134705 606.415405,809.674194 
	C581.616394,819.571045 555.818176,824.939819 528.811035,827.158264 
M352.571594,751.912903 
	C355.065430,754.119751 357.483307,756.419983 360.064545,758.519409 
	C397.045227,788.595947 438.976471,806.772461 486.548950,812.073730 
	C525.234131,816.384644 562.704224,811.714050 598.851318,797.730225 
	C651.021362,777.547668 691.257446,742.941528 720.073853,695.030334 
	C720.985779,693.514160 722.353638,692.128357 722.014893,690.052612 
	C720.369873,688.779602 718.469543,689.337708 716.715942,689.335022 
	C685.390625,689.287903 654.065186,689.326904 622.740112,689.232849 
	C619.381531,689.222717 616.777222,690.109985 614.164001,692.316895 
	C588.575562,713.926758 558.982788,726.496216 525.665039,729.011719 
	C483.076019,732.227051 445.055878,719.911682 412.101044,692.565796 
	C409.365784,690.296082 406.663879,689.228394 403.094727,689.240173 
	C371.603088,689.344360 340.110962,689.290344 308.618988,689.324829 
	C307.040497,689.326538 305.273010,688.794434 303.494141,690.653076 
	C316.337006,713.519836 332.363464,733.914917 352.571594,751.912903 
z"/>
<path fill="#000000" opacity="1.000000" stroke="none" 
	d="
M409.193420,516.289856 
	C421.391479,494.422791 438.236725,477.914917 460.229218,466.576172 
	C463.951569,464.657043 465.585907,465.102509 467.613953,468.654816 
	C481.481934,492.945862 495.533539,517.132141 509.543518,541.341980 
	C510.430359,542.874512 510.879700,544.832092 513.298035,545.418640 
	C515.935303,543.721924 517.163452,540.708008 518.688782,538.060913 
	C532.156067,514.689636 545.577576,491.291260 558.842834,467.805054 
	C560.854126,464.244171 562.841736,463.609711 566.407593,465.469879 
	C598.578491,482.252258 619.804626,507.849792 629.158142,543.051270 
	C630.987366,549.935547 630.814026,550.109924 623.716309,550.108826 
	C565.902588,550.099792 508.088898,550.070190 450.275177,550.057007 
	C434.780304,550.053467 419.285431,550.104675 403.790588,550.089905 
	C397.327332,550.083679 397.053162,549.653809 398.707336,543.628235 
	C401.271271,534.288757 404.497101,525.206970 409.193420,516.289856 
z"/>
<path fill="#000000" opacity="1.000000" stroke="none" 
	d="
M480.462524,478.464539 
	C475.432587,469.791901 470.611938,461.421021 465.735992,453.082489 
	C464.419495,450.831116 463.551880,449.014130 466.916870,447.623413 
	C497.230743,435.095032 527.668335,434.375031 558.279358,446.458405 
	C559.204041,446.823425 560.079651,447.319824 560.956116,447.795654 
	C561.234802,447.946991 561.441895,448.230347 562.474243,449.189819 
	C546.313293,477.202972 530.036377,505.417206 513.060791,534.842346 
	C501.742493,515.263367 491.196747,497.020935 480.462524,478.464539 
z"/>
<path fill="#000000" opacity="1.000000" stroke="none" 
	d="
M665.001221,649.289856 
	C660.005066,649.266724 655.507812,649.286682 651.012451,649.201843 
	C648.955750,649.163025 646.872681,648.961670 646.840027,646.101990 
	C646.810913,643.554016 648.632141,643.031555 650.538635,643.073425 
	C655.088013,643.173340 656.039490,640.628967 656.006470,636.689087 
	C655.887695,622.533569 655.878906,608.376099 655.991821,594.220581 
	C656.024048,590.183411 654.890625,587.792419 650.369507,588.075989 
	C648.032043,588.222534 646.552002,587.223450 646.686340,584.556030 
	C646.814270,582.017273 648.518188,581.660034 650.483276,581.655701 
	C660.309265,581.634094 670.135254,581.636780 679.961243,581.629517 
	C681.957153,581.628052 683.717651,582.043762 683.864258,584.470093 
	C684.020874,587.061096 682.420837,588.111694 680.103516,588.015442 
	C674.992981,587.803101 674.106018,590.799011 674.145325,595.064087 
	C674.266724,608.220154 674.122253,621.378784 674.262695,634.534424 
	C674.292358,637.311218 672.848145,641.317261 676.673218,642.356934 
	C680.769104,643.470154 685.301575,643.805176 688.967224,640.441711 
	C691.618286,638.009216 693.154053,634.839783 694.537720,631.639099 
	C701.143311,616.358215 707.686401,601.050232 714.183289,585.722839 
	C715.414734,582.817505 716.610291,580.579590 720.514893,580.598083 
	C724.233032,580.615723 725.277527,582.760315 726.445251,585.479980 
	C733.668091,602.302856 740.965881,619.093628 748.229248,635.899231 
	C749.480896,638.795227 750.423889,641.862549 753.909729,643.047119 
	C755.576477,643.613525 755.947998,645.127502 755.693604,646.753113 
	C755.409119,648.571716 754.137756,649.208252 752.470947,649.209900 
	C743.977905,649.218079 735.484863,649.219177 726.991943,649.186401 
	C725.337280,649.179993 724.058105,648.548096 723.891846,646.651978 
	C723.722961,644.726440 724.415283,643.239929 726.461670,643.080444 
	C731.847168,642.661011 730.162903,639.856506 729.232422,636.518250 
	C727.617615,630.725159 724.375732,628.391235 718.396484,629.217285 
	C715.290955,629.646301 712.051208,629.561707 708.919800,629.242065 
	C703.882629,628.727844 702.017395,631.556946 701.320740,635.800293 
	C700.606567,640.150879 702.613098,642.412170 706.943115,642.810181 
	C709.031372,643.002197 710.341187,643.995300 710.240295,646.339111 
	C710.114502,649.259827 708.007263,649.259155 705.971313,649.263245 
	C692.481140,649.290100 678.990967,649.284851 665.001221,649.289856 
M722.194641,620.604858 
	C720.660583,615.102783 718.721008,609.787231 715.609680,604.694458 
	C712.327820,608.336121 708.793579,616.602722 708.299194,621.194580 
	C712.601562,622.345825 717.453857,622.363770 722.194641,620.604858 
z"/>
<path fill="#000000" opacity="1.000000" stroke="none" 
	d="
M580.623596,591.743042 
	C579.747986,588.088135 577.085205,588.214233 574.587891,588.045837 
	C572.730896,587.920532 571.295471,587.286804 571.309326,585.120728 
	C571.323120,582.961121 572.285767,581.678162 574.632629,581.719482 
	C590.763672,582.003784 606.956482,580.412109 623.013550,582.806824 
	C635.500793,584.669128 641.587708,597.059082 635.529724,607.496582 
	C633.848755,610.392761 631.260925,612.090942 628.438110,613.578979 
	C625.590637,615.080078 624.213684,616.746155 627.155945,619.612610 
	C631.475525,623.821045 631.930725,629.712219 633.534973,635.093750 
	C634.134521,637.104919 634.162048,639.458069 636.557556,640.575073 
	C639.264282,639.839600 639.187134,637.360657 639.589417,635.384888 
	C640.092407,632.913879 641.649780,632.594971 643.636597,632.856079 
	C645.632812,633.118408 645.708923,634.594788 645.695374,636.215332 
	C645.628540,644.200439 639.858765,650.057495 631.024841,651.032959 
	C622.439026,651.980957 616.208435,647.554810 614.458801,639.498779 
	C613.704346,636.025024 613.831116,632.542053 613.744934,629.055725 
	C613.686157,626.679749 613.295471,624.391479 612.231873,622.290100 
	C610.506165,618.880798 605.035950,616.503601 601.530151,617.583191 
	C597.515991,618.819336 598.496582,622.253662 598.410767,625.107483 
	C598.290710,629.102112 598.402283,633.103088 598.367126,637.100952 
	C598.336121,640.625488 599.563171,642.903809 603.543762,642.834167 
	C605.899170,642.792908 608.045105,643.350952 607.916199,646.330139 
	C607.779846,649.481567 605.299194,649.280823 603.131226,649.280090 
	C594.469116,649.277100 585.806030,649.296814 577.145813,649.152588 
	C575.294556,649.121765 572.660034,649.614014 572.153015,646.982910 
	C571.597717,644.101257 574.411743,643.951538 576.146667,643.566956 
	C579.783691,642.760925 580.841003,640.705322 580.801941,637.146973 
	C580.637085,622.155823 580.695068,607.162109 580.623596,591.743042 
M604.772766,588.083435 
	C603.283813,588.167419 601.768555,588.164307 600.460632,589.033630 
	C597.784119,590.812378 597.301758,608.382202 599.868347,610.277832 
	C604.324158,613.568787 616.425659,609.802063 618.525696,604.470581 
	C622.210205,595.116516 617.186523,588.727661 604.772766,588.083435 
z"/>
<path fill="#000000" opacity="1.000000" stroke="none" 
	d="
M548.153870,607.086792 
	C548.153076,613.402832 548.195007,619.233765 548.123718,625.063232 
	C548.098267,627.149109 548.524048,629.635742 545.423401,630.128601 
	C542.485291,630.595642 541.789734,628.494019 541.118896,626.341736 
	C539.985413,622.705017 538.252441,619.534363 534.237244,618.442871 
	C531.318359,617.649414 529.274902,618.239563 529.313721,621.872253 
	C529.372498,627.368164 529.322510,632.865234 529.377014,638.361206 
	C529.404419,641.129761 530.827698,642.460083 533.649231,642.852966 
	C546.358521,644.622864 554.892090,639.521118 559.238403,627.388611 
	C559.989868,625.290955 560.063843,622.440002 563.462769,622.891174 
	C567.291748,623.399292 566.296265,626.482910 566.247803,628.765930 
	C566.131348,634.256042 565.659607,639.738037 565.496460,645.228149 
	C565.409424,648.155518 564.188843,649.352722 561.224426,649.339905 
	C543.067200,649.261414 524.909607,649.286438 506.752167,649.268005 
	C504.694519,649.265930 502.543243,649.243225 502.307068,646.460693 
	C502.048462,643.414062 504.135254,642.861145 506.511444,642.893311 
	C510.510315,642.947510 511.649933,640.607422 511.640839,637.109192 
	C511.603638,622.783203 511.575073,608.457031 511.599884,594.131042 
	C511.606354,590.393127 510.404205,587.989563 506.161133,588.126953 
	C503.962189,588.198242 502.112061,587.531982 502.077637,584.863831 
	C502.042450,582.140198 503.892670,581.631653 506.112427,581.632751 
	C523.925415,581.641907 541.738464,581.651794 559.551453,581.645874 
	C561.900696,581.645081 563.315857,582.461243 563.393066,585.091980 
	C563.564148,590.915649 563.899536,596.734314 564.103760,602.557312 
	C564.169067,604.420898 564.104492,606.399719 561.698181,606.859131 
	C559.182495,607.339539 558.189636,605.781982 557.486023,603.643860 
	C553.274719,590.847656 546.476685,588.095093 535.024902,588.007080 
	C531.177429,587.977478 529.090637,589.572876 529.227478,593.688171 
	C529.365845,597.848450 529.164490,602.021179 529.338806,606.178955 
	C529.527954,610.689270 532.050598,611.974304 536.017334,609.777893 
	C538.518860,608.392822 539.691650,606.054016 540.677429,603.515625 
	C541.530273,601.319397 541.633850,598.249634 545.269653,598.723694 
	C549.132874,599.227356 547.763489,602.365723 548.128052,604.604431 
	C548.233887,605.254028 548.149231,605.934692 548.153870,607.086792 
z"/>
<path fill="#000000" opacity="1.000000" stroke="none" 
	d="
M327.810181,617.086304 
	C320.147552,620.485779 312.358398,621.006897 304.519470,621.151123 
	C297.887970,621.273071 297.148346,622.009644 297.496429,628.706238 
	C297.600006,630.699524 298.069611,632.731384 297.819458,634.674500 
	C297.125641,640.064819 298.272736,643.559387 304.734283,643.005554 
	C306.631775,642.842957 307.847198,644.089417 307.826752,646.128052 
	C307.806335,648.166504 306.622467,649.188538 304.666412,649.191528 
	C294.346405,649.207275 284.026276,649.190308 273.706268,649.152771 
	C271.833588,649.145935 270.432465,648.439270 270.450226,646.259521 
	C270.467224,644.175232 271.800079,643.088806 273.634399,643.181030 
	C279.379578,643.469788 279.891510,640.089905 279.828186,635.507874 
	C279.639587,621.859619 279.664642,608.205994 279.821045,594.556946 
	C279.868469,590.421204 279.123749,587.664001 274.176300,588.021606 
	C271.983032,588.180115 270.133820,587.430420 270.245453,584.702393 
	C270.343353,582.309814 271.978729,581.668884 274.017609,581.712830 
	C289.638184,582.049133 305.305237,580.582336 320.876007,582.698303 
	C329.566406,583.879272 335.071747,588.952271 336.882843,596.928955 
	C338.699158,604.928528 335.608856,612.018799 327.810181,617.086304 
M316.262177,592.471924 
	C312.062439,587.350037 306.350311,587.834839 300.698608,588.413574 
	C298.480804,588.640625 297.853699,590.569885 297.796997,592.485901 
	C297.630249,598.120544 297.519012,603.758667 297.517731,609.395386 
	C297.517334,611.182129 297.524506,613.195068 299.365021,614.280212 
	C304.874359,617.528809 316.636932,611.883362 317.693665,605.390503 
	C318.363434,601.275085 318.412567,597.116028 316.262177,592.471924 
z"/>
<path fill="#000000" opacity="1.000000" stroke="none" 
	d="
M418.519287,641.770874 
	C424.420898,639.743835 427.340912,635.406372 429.451508,630.327881 
	C430.218140,628.483215 430.912476,626.608643 431.653473,624.753052 
	C432.435211,622.795532 434.061890,622.665649 435.808228,622.910095 
	C437.757568,623.182800 438.125153,624.661926 438.039825,626.240784 
	C437.689362,632.725037 437.291199,639.207092 436.852112,645.685913 
	C436.669861,648.374939 435.028412,649.303589 432.451202,649.295959 
	C416.618378,649.249084 400.785248,649.240295 384.952454,649.284241 
	C380.745605,649.295898 380.081055,646.858276 381.222260,643.700806 
	C382.055786,641.394592 383.584991,639.315796 384.946136,637.228210 
	C394.228790,622.991272 403.564026,608.788513 412.837067,594.545288 
	C413.890015,592.928101 415.353180,591.411743 415.129181,589.227417 
	C405.705109,586.213684 396.574066,589.768494 392.258240,598.146606 
	C391.268768,600.067505 390.508545,602.105713 389.619659,604.079468 
	C388.796539,605.907227 387.257660,606.337158 385.466675,605.996094 
	C383.360443,605.595093 383.037384,603.995972 383.134796,602.190002 
	C383.412689,597.036743 383.788422,591.886292 383.937042,586.729309 
	C384.045532,582.964233 385.663910,581.560974 389.508453,581.603271 
	C403.839600,581.761169 418.173798,581.612183 432.506744,581.644775 
	C438.217987,581.657837 439.773102,584.210632 436.752869,589.138489 
	C431.707214,597.370972 426.352966,605.414673 421.110992,613.526489 
	C416.138519,621.221252 411.145477,628.902649 406.156860,636.586975 
	C405.087769,638.233826 403.886871,639.822998 403.751862,642.428101 
	C408.725922,642.880066 413.435822,643.305969 418.519287,641.770874 
z"/>
<path fill="#000000" opacity="1.000000" stroke="none" 
	d="
M466.689514,588.507751 
	C458.369568,589.600464 453.996460,594.639404 451.356781,601.664490 
	C450.471375,604.020752 449.728729,606.757080 446.324066,605.947327 
	C442.705811,605.086853 443.961670,602.076721 444.036469,599.754456 
	C444.181091,595.264343 444.592896,590.782349 444.713837,586.292175 
	C444.794342,583.302490 445.779266,581.642151 449.101044,581.655884 
	C464.266907,581.718445 479.433502,581.615356 494.599213,581.692261 
	C498.517700,581.712097 500.057434,584.391968 498.100281,588.131592 
	C496.177460,591.805664 493.677704,595.179077 491.412720,598.672485 
	C482.894226,611.811523 474.362061,624.941772 465.855255,638.088379 
	C465.071320,639.299988 463.858185,640.392639 464.315735,642.091553 
	C478.188446,645.107117 486.070892,640.960693 490.984253,628.088806 
	C491.399719,627.000488 491.741150,625.881897 492.198181,624.812012 
	C493.105042,622.689148 494.924866,622.544556 496.823059,622.919617 
	C498.765106,623.303284 498.847290,624.889893 498.742523,626.443909 
	C498.328033,632.591187 497.706268,638.730896 497.515808,644.884338 
	C497.405334,648.453003 495.810883,649.362671 492.541107,649.338440 
	C477.542267,649.227112 462.542084,649.306274 447.542542,649.267151 
	C441.403137,649.251160 439.792053,646.431091 443.148346,641.154724 
	C449.318329,631.455017 455.718536,621.901978 461.997986,612.271606 
	C466.892456,604.765259 471.749268,597.234314 476.780670,589.470703 
	C473.302917,587.504639 470.146027,588.497070 466.689514,588.507751 
z"/>
<path fill="#000000" opacity="1.000000" stroke="none" 
	d="
M368.253815,636.567749 
	C368.166016,640.784851 369.593597,643.059204 373.761932,642.990967 
	C375.923218,642.955505 377.814545,643.656372 377.795258,646.340637 
	C377.774475,649.229187 375.665985,649.281372 373.578308,649.280518 
	C364.081329,649.276672 354.584290,649.286682 345.087433,649.249756 
	C343.057190,649.241882 340.922180,649.232605 340.790833,646.329102 
	C340.665558,643.559937 342.502991,642.847534 344.672760,642.940674 
	C349.367584,643.142273 350.126709,640.355652 350.103699,636.536316 
	C350.019348,622.541199 349.977234,608.544922 350.065582,594.550049 
	C350.091644,590.427612 349.134125,587.680542 344.268433,587.988586 
	C342.210327,588.118896 340.753571,587.271484 340.741760,584.818787 
	C340.729675,582.309326 342.223633,581.732178 344.293121,581.726868 
	C354.289581,581.701416 364.286041,581.676453 374.282501,581.658020 
	C376.350830,581.654175 377.925690,582.270691 377.895416,584.733032 
	C377.866882,587.055481 376.431244,588.176086 374.359406,588.003784 
	C368.882935,587.548462 368.143616,590.654175 368.194794,595.129639 
	C368.351044,608.790161 368.249207,622.453674 368.253815,636.567749 
z"/>
<path fill="#000000" opacity="1.000000" stroke="none" 
	d="
M446.151093,688.254639 
	C445.570435,682.559387 447.449127,676.928711 443.936310,671.319824 
	C449.972015,670.046265 455.678711,670.151123 461.304138,670.573975 
	C464.190674,670.790771 464.651337,674.729431 462.422302,678.876099 
	C459.587799,677.360046 458.703583,672.194580 454.289490,673.904175 
	C452.489410,674.601318 453.196014,676.747559 453.516205,678.372803 
	C455.617065,679.281433 455.764252,675.955017 457.940674,676.655762 
	C459.234039,679.582825 459.714844,682.630432 458.105103,685.553589 
	C455.958527,686.445435 455.531250,683.992615 453.956757,683.922424 
	C453.399445,685.682007 453.641449,687.265930 454.089020,689.036072 
	C459.042358,690.785583 460.213074,685.901428 463.064819,683.507935 
	C465.139404,685.885925 464.990234,688.288818 464.064545,690.621887 
	C463.195709,692.811829 461.003357,692.332703 459.268372,692.278320 
	C454.370636,692.124756 449.413574,692.897339 444.695282,691.798950 
	C443.955353,689.942261 445.693970,689.630554 446.151093,688.254639 
z"/>
<path fill="#000000" opacity="1.000000" stroke="none" 
	d="
M483.688477,676.968018 
	C481.363953,679.561951 480.474762,677.328369 479.462677,675.999573 
	C477.393646,673.283081 475.078400,672.198853 471.753479,674.348022 
	C472.752502,677.831116 475.899994,677.496094 478.163422,678.281982 
	C483.201416,680.031250 485.244659,682.940918 484.162140,687.470398 
	C483.268677,691.208862 479.146149,693.687256 474.706146,692.649902 
	C472.295013,692.086548 469.928925,691.945190 467.404419,692.121155 
	C466.464172,689.180054 466.213104,686.514221 467.344452,683.849121 
	C469.827118,683.356201 470.205902,685.406494 471.135193,686.595642 
	C472.296997,688.082092 473.535065,689.380188 475.475189,689.669373 
	C476.997742,689.896301 478.682434,689.929749 479.315460,688.215515 
	C480.017578,686.314087 478.550049,685.576111 477.032135,685.083130 
	C474.982697,684.417480 472.892090,683.862610 470.882080,683.095337 
	C467.899323,681.956665 466.488312,679.718445 466.667816,676.498474 
	C466.847931,673.268860 468.651428,671.461670 471.584747,670.334839 
	C475.079346,668.992371 478.531006,670.327148 481.858734,670.665039 
	C484.501190,670.933350 483.714844,674.389771 483.688477,676.968018 
z"/>
<path fill="#000000" opacity="1.000000" stroke="none" 
	d="
M565.021423,680.061462 
	C565.550232,673.797729 568.034912,670.970276 573.142944,670.819580 
	C578.037476,670.675232 580.585449,673.582825 579.232361,678.288147 
	C578.721497,680.064514 579.514099,681.065002 580.025757,682.407776 
	C581.418518,686.062561 580.915405,689.320618 577.435181,691.558105 
	C574.003723,693.764221 568.106201,693.110962 565.927551,690.368042 
	C564.456482,688.515930 564.174927,686.420105 565.389893,684.333130 
	C566.180481,682.975037 566.994385,681.739502 565.251465,680.198486 
	C565.007202,680.023193 565.021423,680.061462 565.021423,680.061462 
M573.232361,685.432373 
	C572.006165,684.938782 570.662903,684.268860 570.209900,686.269653 
	C569.894409,687.662964 570.420959,688.871887 571.771606,689.468445 
	C572.861389,689.949829 574.073730,689.951477 574.854309,688.903625 
	C575.939514,687.446716 574.888855,686.555176 573.232361,685.432373 
z"/>
<path fill="#000000" opacity="1.000000" stroke="none" 
	d="
M531.620728,680.860046 
	C530.776611,675.070801 532.871338,671.760254 537.576965,670.941772 
	C541.937073,670.183472 546.126221,673.186096 547.112366,677.776428 
	C548.611511,684.754578 545.756226,690.649109 540.107727,692.498474 
	C537.487488,693.356323 535.114746,693.068176 533.133057,691.231262 
	C531.225281,689.462891 531.410767,687.481445 533.038879,685.480957 
	C534.650818,683.500427 531.739624,682.766418 531.620728,680.860046 
M540.494324,679.410583 
	C540.574402,677.608582 541.399780,675.512268 538.762878,674.658203 
	C536.799988,676.302979 537.073486,678.199219 537.926697,679.998474 
	C538.498230,681.203857 539.456482,680.838379 540.494324,679.410583 
z"/>
<path fill="#000000" opacity="1.000000" stroke="none" 
	d="
M564.997559,680.005615 
	C564.406555,682.059021 563.943481,684.172668 563.216370,686.191223 
	C562.089233,689.320312 559.976196,691.481506 556.682434,692.479980 
	C553.883728,693.328491 551.353027,693.084106 549.422729,690.816406 
	C547.297729,688.320068 549.162354,686.287048 550.678650,684.457336 
	C546.650757,678.880493 546.941711,674.670410 551.394043,671.988647 
	C555.929443,669.256958 560.677185,671.110962 563.473572,676.726135 
	C563.916016,677.614685 564.270996,678.546875 564.843872,679.760132 
	C565.021423,680.061462 565.007202,680.023193 564.997559,680.005615 
M554.279053,676.914062 
	C554.409790,678.388794 553.627563,680.250061 555.977722,680.897156 
	C558.104126,679.328796 558.202087,677.345764 556.785034,675.461914 
	C555.753784,674.090942 554.855957,674.987793 554.279053,676.914062 
z"/>
<path fill="#000000" opacity="1.000000" stroke="none" 
	d="
M485.125732,672.764771 
	C486.017548,670.380127 487.799194,670.735291 489.428986,670.515991 
	C493.083191,670.024170 496.714417,670.353271 500.362518,670.492554 
	C506.271729,670.718262 507.309418,672.432190 505.074799,678.733154 
	C502.046356,678.694946 503.018097,674.191833 499.290955,674.130249 
	C499.075745,679.844116 497.405884,685.573669 501.199341,691.341431 
	C497.690918,693.041016 494.207367,692.260986 490.235077,691.892334 
	C492.965759,685.899902 492.118073,680.036560 491.624969,674.003357 
	C488.096405,674.267883 488.905426,678.076721 486.317078,678.878479 
	C484.078766,677.381836 485.049774,675.125916 485.125732,672.764771 
z"/>
<path fill="#000000" opacity="1.000000" stroke="none" 
	d="
M518.545410,676.136475 
	C516.648254,674.828247 516.048157,673.664246 518.400574,672.873840 
	C520.546448,672.152771 522.780701,671.694580 525.181396,671.066895 
	C528.596985,677.548035 522.933350,685.512207 529.477844,691.351257 
	C525.253479,692.873535 521.504333,692.466431 517.177429,691.666992 
	C521.307312,686.665283 520.671997,681.545715 518.545410,676.136475 
z"/>
<path fill="#000000" opacity="1.000000" stroke="none" 
	d="
M393.196625,412.891541 
	C395.248260,415.534332 396.970001,418.014618 398.999298,420.210663 
	C400.506256,421.841431 401.234375,425.303955 404.692200,423.523224 
	C407.711639,421.968231 408.765961,419.270294 408.404633,416.003082 
	C407.709747,409.719269 406.962128,403.441284 406.226135,397.162048 
	C405.980957,395.070190 404.879608,392.711304 407.184448,391.200378 
	C409.566040,389.639099 411.204346,391.673950 412.900177,392.919434 
	C418.003754,396.667694 423.070343,400.466431 428.179932,404.206421 
	C430.129242,405.633209 432.241333,406.718872 434.628143,405.231445 
	C437.212372,403.620911 437.285980,401.094940 436.513611,398.577057 
	C435.293427,394.599396 433.690247,390.736359 432.540771,386.740936 
	C431.713196,383.864258 428.757019,383.816864 427.022125,382.235107 
	C430.116547,377.745667 435.821503,376.536652 440.396973,379.182709 
	C444.047150,381.293610 447.254883,384.395447 451.976166,384.839233 
	C453.784363,378.961243 449.634735,377.505737 445.115692,375.659393 
	C448.438232,372.142365 452.176331,371.045319 456.006836,370.640259 
	C457.943787,370.435364 458.639160,372.326599 457.348602,373.758759 
	C455.069092,376.288330 456.181793,378.667297 457.048431,381.189667 
	C458.725525,386.070801 460.390930,390.956543 461.989044,395.863861 
	C462.436646,397.238373 463.259247,398.888489 461.683502,399.980286 
	C460.304382,400.935883 458.810883,400.278351 457.471252,399.466858 
	C453.338470,396.963562 449.219208,394.436737 445.051147,391.993378 
	C443.386505,391.017548 441.885162,389.490448 438.984894,390.013184 
	C439.267639,395.874573 440.657959,400.821350 447.057220,402.867798 
	C446.724823,403.687378 446.650482,404.414703 446.355042,404.519714 
	C438.947571,407.151672 432.257446,411.154724 425.558044,415.168854 
	C423.917450,416.151825 421.922577,416.036713 422.140839,413.507477 
	C422.357788,410.993835 421.673706,409.102692 419.227295,409.618713 
	C416.782837,410.134399 413.784698,411.233673 413.260040,414.220306 
	C412.749329,417.127869 415.893127,415.912628 417.172241,416.893707 
	C417.425171,417.087769 417.603333,417.379333 417.811340,417.629944 
	C416.669617,420.066711 397.367249,434.067963 394.536896,434.513031 
	C393.361877,424.463501 386.004395,415.234863 378.043152,413.824646 
	C378.805359,409.670837 387.099640,403.327209 391.485077,403.951813 
	C389.134460,407.369598 390.662964,410.079193 393.196625,412.891541 
z"/>
<path fill="#000000" opacity="1.000000" stroke="none" 
	d="
M355.971252,433.134216 
	C359.248016,430.489014 360.946594,426.528870 365.532379,424.942322 
	C364.530090,434.922241 373.652496,437.316040 378.092682,443.138306 
	C379.645355,445.174194 381.223724,444.188660 382.591797,442.557404 
	C385.137695,439.521698 385.359619,436.289398 383.655823,432.800781 
	C383.126221,431.716400 382.776550,430.504242 383.985138,429.656403 
	C385.222839,428.788147 386.125488,429.734253 387.045380,430.468384 
	C393.373627,435.518372 393.442169,436.924805 387.708069,442.965942 
	C380.626648,450.426544 372.911865,457.328766 367.339874,466.125824 
	C366.847717,466.902832 365.936371,467.414368 365.286774,467.989807 
	C362.585846,467.188416 363.216675,461.313324 359.125336,464.024658 
	C356.896057,465.501984 354.381348,467.940033 355.161407,470.963776 
	C356.094147,474.579224 359.273651,470.460205 361.655853,472.446960 
	C361.236786,476.124939 358.392914,478.708832 355.999023,481.412598 
	C355.032837,482.503815 353.511169,481.601318 353.365906,480.348145 
	C352.349915,471.583374 345.559906,465.838165 342.090485,458.377136 
	C341.175293,456.409088 338.774689,454.578644 340.748657,452.084991 
	C342.505005,449.866272 344.794678,451.314972 346.793335,451.705170 
	C352.666718,452.851837 358.500732,454.198425 364.361237,455.413330 
	C366.142151,455.782501 367.956787,456.208496 369.768036,455.489136 
	C373.002350,454.204651 373.821350,451.424622 371.464081,449.025574 
	C368.083344,445.584869 364.368958,442.463318 361.095276,438.929230 
	C359.103516,436.779022 356.834473,437.908600 354.800568,437.790375 
	C353.042603,435.695404 354.793915,434.650879 355.971252,433.134216 
z"/>
<path fill="#000000" opacity="1.000000" stroke="none" 
	d="
M582.894897,384.109619 
	C585.354797,381.042847 583.687256,378.306519 582.869507,374.999084 
	C593.621521,378.646362 603.698547,382.845337 613.772705,388.276917 
	C604.805786,395.083618 600.759766,403.058960 601.668518,414.431946 
	C591.332703,410.681519 581.392151,405.965546 571.595459,400.255157 
	C579.876587,397.734558 579.382202,389.752533 582.894897,384.109619 
M586.999268,404.697968 
	C589.784973,406.354858 592.149719,406.024139 593.353333,402.843323 
	C594.087830,400.902161 596.052673,398.483398 592.967590,396.830597 
	C591.186462,395.876404 588.918884,394.294464 587.243164,396.713959 
	C585.712524,398.924133 582.816223,401.365051 586.999268,404.697968 
M598.207642,385.131927 
	C594.637451,383.041626 592.216064,384.111938 590.911987,387.891205 
	C589.595398,391.706635 593.171570,391.597198 595.034546,392.754028 
	C596.132874,393.436035 597.303101,393.131592 598.004761,391.906128 
	C599.142090,389.919739 600.758911,387.975769 598.207642,385.131927 
z"/>
<path fill="#000000" opacity="1.000000" stroke="none" 
	d="
M633.683838,407.863953 
	C632.480103,405.447876 631.540771,402.675293 628.878296,402.988556 
	C626.677734,403.247467 625.736206,405.582764 625.554871,407.720825 
	C627.487488,409.852325 629.994202,406.462463 631.958862,409.244049 
	C630.999573,413.046051 628.067078,416.053955 625.634155,419.252258 
	C624.371643,420.911926 622.856750,419.869324 622.350342,418.134857 
	C621.995667,416.919891 622.095581,415.572235 621.952759,413.787964 
	C619.150818,415.375793 616.116394,416.939148 617.600525,420.177856 
	C619.136047,423.528595 622.572632,424.193970 626.187927,422.771149 
	C627.938904,422.082031 629.367676,420.105865 632.111877,421.434875 
	C632.020691,425.359161 629.129578,427.828156 626.519348,429.982605 
	C624.112671,431.969055 622.361572,428.971161 620.582458,427.779572 
	C616.022888,424.725739 611.576294,421.498840 607.156250,418.243713 
	C605.903259,417.320984 604.113220,416.659576 604.290588,414.287933 
	C613.190247,413.046539 614.710938,404.438477 619.386475,398.877655 
	C619.672180,398.537933 619.700195,397.934601 619.742981,397.444763 
	C620.277222,391.329010 620.298462,391.290619 625.358398,394.778564 
	C629.329895,397.516357 633.215088,400.379028 637.158997,403.157349 
	C642.457092,406.889648 642.478333,406.953461 638.744141,412.527069 
	C637.678406,414.117706 637.678406,414.117676 635.096680,415.649048 
	C632.353760,413.596436 634.673279,410.617889 633.683838,407.863953 
z"/>
<path fill="#000000" opacity="1.000000" stroke="none" 
	d="
M641.591492,424.599304 
	C643.924316,421.270477 648.439941,419.646545 646.865540,414.388275 
	C646.301636,412.505066 648.619202,412.192474 649.996765,413.350708 
	C653.568787,416.354187 657.251221,419.296722 656.107727,424.941010 
	C655.218750,429.329315 654.944519,433.805237 655.629211,439.154694 
	C658.728394,435.733154 663.440674,434.262970 661.373230,428.523041 
	C660.800964,426.934204 662.529236,425.783905 663.812134,426.781189 
	C666.706360,429.031006 670.087280,431.041595 671.342957,435.744171 
	C663.775024,434.530762 661.339539,440.689728 657.276611,444.440918 
	C655.565918,446.020386 654.071472,447.835907 652.343933,449.394714 
	C650.971863,450.632782 649.990295,453.261749 647.569519,451.984192 
	C645.210876,450.739410 646.065796,448.260742 646.188049,446.117310 
	C646.481628,440.969391 646.692932,435.815857 646.847351,430.661865 
	C646.874817,429.745392 646.468506,428.815887 646.253845,427.853729 
	C640.937927,430.020203 638.105103,433.870819 638.506897,438.278656 
	C638.589722,439.187653 638.603577,439.959473 637.862061,440.493042 
	C637.097412,441.043243 636.341248,440.748718 635.558472,440.309753 
	C633.964966,439.416046 629.989502,434.784668 628.645142,431.646149 
	C635.065308,433.067535 637.862244,428.408112 641.591492,424.599304 
z"/>
<path fill="#000000" opacity="1.000000" stroke="none" 
	d="
M525.742798,363.456757 
	C527.987366,364.699249 527.564575,365.784790 526.242615,367.122223 
	C523.334656,370.064148 521.313721,382.100677 522.982910,385.719971 
	C524.110901,388.165924 526.105103,389.025848 528.647400,388.976318 
	C531.256897,388.925476 533.744263,387.821838 533.792480,385.230927 
	C533.904846,379.192535 538.599548,372.790955 532.473022,367.079224 
	C531.002441,365.708191 532.171326,364.064392 534.005188,364.008759 
	C537.250854,363.910339 540.545715,364.050995 544.312805,366.124725 
	C537.043518,370.999329 539.986938,378.502411 538.550415,384.833862 
	C537.069214,391.362488 533.196777,394.425293 525.915222,393.917328 
	C517.664734,393.341766 513.837402,389.948059 513.789795,382.987030 
	C513.776184,381.004913 514.095520,379.010986 514.373108,377.038116 
	C515.297180,370.472107 514.997253,368.955566 511.164368,363.475037 
	C516.120117,362.079987 520.753357,362.741730 525.742798,363.456757 
z"/>
<path fill="#000000" opacity="1.000000" stroke="none" 
	d="
M499.301758,375.747253 
	C502.329071,380.867065 504.923431,385.835632 509.516693,390.166473 
	C505.011017,393.158386 500.487213,392.631836 496.237305,393.066345 
	C495.159790,393.176514 494.521301,391.973877 494.748383,390.897156 
	C495.180481,388.848358 496.601685,386.354889 493.406769,385.617706 
	C490.662018,384.984436 487.836609,385.487213 486.070221,387.863647 
	C485.977142,390.578888 489.667053,390.206635 489.228149,393.191284 
	C486.394531,394.856323 482.986145,395.144745 479.602417,395.120728 
	C477.577484,395.106354 476.917786,393.381409 478.086548,391.980652 
	C483.809998,385.121124 483.510834,376.137421 486.661835,368.387695 
	C487.388641,366.600037 487.348999,364.261841 489.892761,363.898438 
	C492.429047,363.536194 493.244659,365.675659 494.276398,367.308777 
	C495.959564,369.973083 497.515503,372.717804 499.301758,375.747253 
z"/>
<path fill="#000000" opacity="1.000000" stroke="none" 
	d="
M675.790955,462.806671 
	C674.000488,464.072144 672.457031,465.067719 671.002441,466.179688 
	C668.553650,468.051758 665.089478,469.329376 667.163940,473.640503 
	C662.844849,473.186707 657.719971,466.833191 656.717957,461.337830 
	C666.529114,462.632721 670.918701,454.019745 678.199036,450.448456 
	C675.150635,444.885498 670.445923,450.597321 666.980225,447.827057 
	C668.590393,443.980469 672.184753,442.567841 675.391052,441.571503 
	C678.333496,440.657196 679.103271,444.287201 680.515015,446.152924 
	C683.428223,450.002838 685.860046,454.245178 688.997620,457.888947 
	C691.902832,461.262909 691.679810,463.568054 687.971008,465.822662 
	C686.196106,466.901703 684.963257,468.976562 682.334167,468.801331 
	C680.038269,464.969696 687.401672,462.548737 683.663025,458.400421 
	C680.618164,458.721680 678.511230,460.977448 675.790955,462.806671 
z"/>
<path fill="#000000" opacity="1.000000" stroke="none" 
	d="
M572.867737,382.878082 
	C569.985901,381.612701 571.219788,379.035248 570.492371,377.127106 
	C570.000732,375.837341 569.355774,374.601868 567.796875,374.561005 
	C566.323608,374.522369 565.915100,375.819580 565.646362,376.924347 
	C564.470215,381.760223 563.572327,386.672791 562.186890,391.445312 
	C561.361511,394.288208 564.712646,395.676727 563.911621,399.059753 
	C558.711487,398.320953 553.567566,397.814240 548.563904,395.030914 
	C554.086365,390.120850 557.431152,380.186127 556.673950,371.812927 
	C553.637451,371.292542 552.345520,373.459442 550.963562,375.496887 
	C550.240906,376.562225 549.650269,378.144348 547.955811,377.255402 
	C546.343933,376.409851 547.180603,374.958069 547.511780,373.716553 
	C547.896973,372.272522 548.387085,370.853058 548.704407,369.395233 
	C549.278442,366.758392 550.741577,365.831696 553.405029,366.486969 
	C559.853943,368.073639 566.333984,369.533081 572.788330,371.098206 
	C575.018738,371.639069 576.286133,372.917328 575.636597,375.440613 
	C574.989746,377.953278 575.471863,380.822601 572.867737,382.878082 
z"/>
<path fill="#000000" opacity="1.000000" stroke="none" 
	d="
M340.276337,495.800171 
	C335.853394,493.775543 331.766113,491.912811 327.665161,490.080688 
	C326.454376,489.539703 325.103668,488.810333 324.033112,490.173126 
	C322.830872,491.703644 323.990387,492.927155 324.808655,494.191467 
	C325.914948,495.900909 328.657867,496.513184 328.212372,499.763489 
	C324.255676,500.357300 321.269745,498.087982 318.723907,495.825958 
	C316.497009,493.847290 318.845886,491.499481 319.699677,489.489044 
	C321.715271,484.742889 324.125519,480.158142 326.006317,475.363037 
	C327.388794,471.838440 329.183197,470.516571 332.726959,472.522766 
	C334.749634,473.667847 337.699585,473.386200 338.734558,476.421722 
	C335.827820,479.188263 330.656342,474.940460 328.337128,480.604156 
	C334.155243,483.853119 340.295044,486.524231 346.551453,488.955963 
	C346.953308,489.112183 347.574585,489.008575 347.977356,488.800446 
	C349.173798,488.182312 350.077759,486.023102 351.695587,487.652435 
	C353.236542,489.204407 351.657166,490.848877 350.957306,492.186218 
	C349.249451,495.449677 348.732635,499.450989 345.584503,502.078186 
	C343.051270,500.368866 343.948486,496.428223 340.276337,495.800171 
z"/>
<path fill="#000000" opacity="1.000000" stroke="none" 
	d="
M698.054199,499.928833 
	C695.390869,501.038818 693.039856,501.884796 690.836365,503.017670 
	C688.203003,504.371582 686.000061,506.355103 686.511169,509.630768 
	C687.037964,513.007874 689.211487,515.160950 692.554932,516.233032 
	C694.225159,516.768616 696.321411,516.036987 697.766174,518.077454 
	C696.219543,521.689331 693.166504,520.440735 690.766357,519.757751 
	C681.585632,517.145142 678.401855,503.267853 685.459839,496.296783 
	C690.303101,491.513245 696.287231,489.782257 702.895203,492.070251 
	C708.893433,494.147156 711.811523,498.884552 712.215332,504.982422 
	C712.375488,507.401062 713.965149,508.807068 715.043518,511.164093 
	C711.994141,514.229126 708.157898,515.459290 704.247742,516.422241 
	C702.596863,513.854065 704.287659,512.853699 705.392029,511.739380 
	C708.165710,508.940918 710.015137,505.836853 707.779114,501.972717 
	C705.537842,498.099274 701.894348,499.061829 698.054199,499.928833 
z"/>
<path fill="#000000" opacity="1.000000" stroke="none" 
	d="
M680.766785,489.528320 
	C677.908264,490.549561 679.859009,493.493835 678.186462,494.743958 
	C674.369080,493.383667 669.886536,484.765289 670.759460,480.536163 
	C676.296570,483.675171 691.795349,476.056213 693.954163,468.587158 
	C697.447937,470.396057 701.603516,478.222107 701.478821,483.059082 
	C692.960266,479.629120 687.756897,486.815430 680.766785,489.528320 
z"/>
<path fill="#000000" opacity="1.000000" stroke="none" 
	d="
M314.361633,503.711487 
	C315.042450,501.999115 315.336609,500.360840 317.419220,500.673645 
	C320.277771,507.456909 334.795959,512.450745 341.798767,509.086884 
	C343.309418,512.857300 340.213959,522.130249 336.704224,524.348450 
	C333.008545,517.345703 318.302673,512.275696 311.703064,516.323059 
	C310.524902,511.592468 313.419495,507.990997 314.361633,503.711487 
z"/>
<path fill="#000000" opacity="1.000000" stroke="none" 
	d="
M461.839600,778.851624 
	C466.678558,773.176270 468.813324,761.674805 465.316620,755.832336 
	C470.133911,755.166138 474.125061,756.552063 478.932831,757.917664 
	C476.298676,760.599792 473.304962,762.748779 474.703827,766.095215 
	C475.764069,768.631409 478.651306,767.732300 480.989380,767.930298 
	C482.358978,764.655945 482.122284,761.732239 478.814270,758.270081 
	C484.735687,758.225098 488.839661,759.075012 493.128937,760.775452 
	C487.763763,766.417542 485.599487,777.871033 488.895691,783.751221 
	C484.162048,784.568237 480.180176,783.370056 475.118195,781.287231 
	C479.686127,779.096130 480.136475,775.837219 480.059204,772.371887 
	C478.183350,770.908997 476.152649,771.158875 473.995056,770.911621 
	C471.901978,774.264954 471.509186,777.498230 475.502136,781.431580 
	C469.964417,781.533997 465.903473,780.912354 461.839600,778.851624 
z"/>
<path fill="#000000" opacity="1.000000" stroke="none" 
	d="
M521.774902,767.798340 
	C521.249512,768.647461 520.899658,769.201599 520.388977,770.010376 
	C522.975464,771.689453 526.393127,769.552429 528.941040,771.936157 
	C527.333801,774.728577 523.417725,776.130737 524.140442,779.967285 
	C526.218079,781.899231 527.332275,778.438416 529.132874,779.266785 
	C529.674561,784.260803 526.636780,787.061707 521.788269,785.647827 
	C519.404907,784.952881 517.437500,785.068909 515.090881,785.774963 
	C511.125488,786.968323 506.937714,787.124207 504.465515,782.905090 
	C502.146027,778.946655 503.516541,775.473083 507.045135,772.912537 
	C509.218842,771.335144 508.206940,769.420837 508.160858,767.499512 
	C508.059387,763.271301 511.546021,759.968750 515.837585,760.052490 
	C520.366272,760.140869 522.357239,762.567627 521.774902,767.798340 
M514.887573,780.597290 
	C513.746826,778.952881 512.948792,776.973022 510.715515,775.914795 
	C511.070160,780.949097 511.593170,781.524780 514.887573,780.597290 
z"/>
<path fill="#000000" opacity="1.000000" stroke="none" 
	d="
M395.989014,747.368652 
	C396.886871,745.547119 397.728851,744.114990 398.486084,742.639343 
	C399.115479,741.412842 399.600342,740.030579 398.237305,739.037598 
	C396.456146,737.740051 395.648529,739.434326 394.587463,740.420227 
	C392.450500,742.405945 392.970551,744.762878 394.302856,748.205933 
	C388.772736,746.208679 385.330292,743.436829 381.924774,739.788208 
	C389.421753,737.395752 396.591461,727.493286 395.577637,721.722839 
	C396.201630,720.941833 396.990021,720.883911 397.772217,721.366455 
	C402.305023,724.163147 406.781281,727.100281 410.611328,730.790649 
	C415.222992,735.234070 414.090271,740.461670 407.979645,742.141418 
	C403.724609,743.311157 405.631622,747.160583 403.743530,749.022400 
	C404.392761,750.631409 406.776489,749.186890 406.787872,751.160950 
	C406.796875,752.722168 405.539154,753.466797 404.342041,754.006775 
	C400.588898,755.699951 396.851654,752.892273 395.989014,747.368652 
M402.019806,736.598572 
	C404.574066,737.105896 406.210175,736.076416 406.643280,733.535950 
	C406.925232,731.882019 405.881348,730.735229 404.477173,730.032837 
	C402.297333,728.942322 401.673065,730.965332 400.664429,732.095337 
	C399.176392,733.762390 399.073364,735.277466 402.019806,736.598572 
z"/>
<path fill="#000000" opacity="1.000000" stroke="none" 
	d="
M418.656799,737.571716 
	C420.528137,735.850220 421.879669,737.364624 423.276764,738.026123 
	C426.738525,739.664978 430.144562,741.422180 433.562927,743.151672 
	C439.885132,746.350342 440.073639,748.847961 433.922455,754.285889 
	C432.093353,750.669617 433.540070,744.541382 427.768219,744.264954 
	C425.211090,744.142456 425.095490,747.487793 424.383881,749.552551 
	C426.758911,751.360168 428.066742,747.835388 430.722626,749.208069 
	C430.418579,752.988159 428.172211,755.969299 426.215942,758.934387 
	C422.859894,758.353699 424.827820,755.042175 422.485321,753.997620 
	C420.339539,755.379883 418.540680,758.260986 419.844147,759.942200 
	C423.702332,764.918457 428.023895,761.179749 432.166382,758.580200 
	C433.129913,762.824280 430.892975,765.129333 429.076996,767.178101 
	C427.163513,769.336853 425.077026,766.994629 423.265656,766.172974 
	C419.477722,764.454590 415.797119,762.492249 412.120148,760.540283 
	C410.726776,759.800659 408.900116,759.393921 408.713135,757.327698 
	C414.489410,754.503967 420.285736,743.005005 418.656799,737.571716 
z"/>
<path fill="#000000" opacity="1.000000" stroke="none" 
	d="
M607.247803,759.404358 
	C608.102539,759.410645 608.623108,759.437317 609.087708,759.289001 
	C611.165283,758.625549 613.789124,757.966675 613.325989,755.256348 
	C612.806030,752.213989 609.979370,753.233887 607.946899,753.373169 
	C606.299683,753.486145 604.686462,754.025513 603.040405,754.238525 
	C598.730225,754.796448 595.416260,753.391052 593.991760,749.036987 
	C592.719971,745.149780 594.700195,741.199646 598.813049,739.159058 
	C601.591675,737.780396 604.920044,737.747009 607.207153,735.453125 
	C610.653503,739.134460 611.003296,739.842102 611.358582,743.659912 
	C609.468506,744.858032 608.291138,743.175049 606.903137,742.494202 
	C605.055969,741.588135 603.162842,740.913147 601.135986,741.561646 
	C599.649780,742.037109 598.355469,743.021484 598.483337,744.776184 
	C598.637085,746.886414 600.376587,746.889282 601.873230,746.704895 
	C603.847717,746.461670 605.775818,745.849182 607.749512,745.591125 
	C612.949890,744.911011 616.322083,747.082275 617.570007,751.865540 
	C618.820557,756.658691 616.215210,759.407410 612.352600,761.430359 
	C609.455383,762.947754 605.830627,762.755676 603.586304,765.472168 
	C600.128418,762.291687 599.280640,760.638916 598.868896,756.302856 
	C602.182495,755.697998 603.914368,759.310852 607.247803,759.404358 
z"/>
<path fill="#000000" opacity="1.000000" stroke="none" 
	d="
M446.817688,772.215088 
	C449.249786,772.964294 451.350433,772.981506 452.090210,770.529236 
	C452.693176,768.530457 450.728119,767.728088 449.419006,766.786926 
	C448.069611,765.816833 446.577057,765.039612 445.263641,764.026855 
	C441.828613,761.378174 439.608246,758.268555 441.997284,753.756287 
	C443.957367,750.054321 448.246399,748.607971 452.854828,750.125061 
	C455.205017,750.898804 457.856781,751.851501 459.546143,753.170898 
	C463.188843,756.015808 460.030243,759.077576 458.703064,761.998169 
	C456.275391,761.349060 456.351868,759.403748 455.768829,757.959351 
	C455.004333,756.065430 454.136719,754.307739 452.234100,753.313477 
	C450.814117,752.571411 449.354736,752.197449 448.170319,753.649109 
	C446.848114,755.269775 447.932159,756.496399 449.146393,757.435730 
	C450.587524,758.550354 452.231201,759.398621 453.720490,760.456177 
	C458.262390,763.681396 459.405670,767.835205 456.980133,772.086365 
	C454.757111,775.982544 450.578461,777.091858 445.624390,775.172729 
	C442.876312,774.108154 440.851807,771.379944 437.284088,772.253235 
	C436.844330,768.107361 437.808258,765.056152 440.399872,761.907715 
	C443.090210,765.215698 442.417206,770.164978 446.817688,772.215088 
z"/>
<path fill="#000000" opacity="1.000000" stroke="none" 
	d="
M382.921112,708.047791 
	C385.308441,710.398743 387.422363,712.519775 389.571503,714.604553 
	C394.575592,719.458923 393.961121,722.081848 386.655487,725.257080 
	C385.588776,721.423828 388.880798,715.971619 383.470428,713.993225 
	C381.253296,713.182434 380.094269,715.973145 378.883240,717.696472 
	C380.735687,720.057068 383.221527,717.005310 385.495056,719.274902 
	C383.547028,722.826294 380.886688,725.623413 377.207306,727.496277 
	C375.174347,725.498108 377.760925,723.409729 375.733398,721.707886 
	C372.365814,723.393860 370.004272,725.554443 372.702057,731.322021 
	C366.807892,728.425232 363.797089,725.004761 360.726990,720.561218 
	C367.073853,721.145874 377.207031,710.208252 377.104401,704.172668 
	C379.921234,703.935608 380.843719,706.577332 382.921112,708.047791 
z"/>
<path fill="#000000" opacity="1.000000" stroke="none" 
	d="
M595.526489,769.143555 
	C592.202271,770.435547 589.321838,772.175903 585.773193,771.977600 
	C585.048279,769.951782 587.263855,766.678589 583.479309,766.433105 
	C581.297913,766.291626 578.929138,766.961914 577.799988,768.878845 
	C576.098267,771.768005 580.174500,771.281006 580.843079,773.380615 
	C578.586914,775.854675 575.528625,776.492920 571.172302,777.092468 
	C573.500061,771.169250 573.865845,765.546753 574.081238,759.900208 
	C574.175720,757.423584 574.538269,754.958069 574.733032,752.483887 
	C574.843750,751.077637 575.197632,749.863220 576.675720,749.329407 
	C577.992920,748.853760 578.920166,749.584351 579.740356,750.433350 
	C585.242126,756.128357 590.117920,762.421875 596.145752,767.621277 
	C596.300049,767.754333 595.931763,768.493286 595.526489,769.143555 
z"/>
<path fill="#000000" opacity="1.000000" stroke="none" 
	d="
M630.652405,720.689026 
	C632.829346,716.842102 636.242432,714.351807 640.140015,711.449707 
	C641.346130,715.139709 643.496216,716.697876 647.120422,716.137817 
	C647.548096,712.493774 646.385010,710.419678 641.852295,711.014160 
	C643.240784,706.771545 646.136658,704.951294 649.600952,702.888184 
	C651.474426,711.077393 648.283691,721.795227 661.472839,724.102905 
	C659.379028,728.399597 655.621033,731.061829 651.397522,733.815063 
	C650.075195,724.953247 642.667969,720.444885 632.240784,721.783447 
	C631.319641,721.322327 630.986023,721.005676 630.652405,720.689026 
z"/>
<path fill="#000000" opacity="1.000000" stroke="none" 
	d="
M630.296509,720.704102 
	C630.986023,721.005676 631.319641,721.322327 631.890259,721.889893 
	C632.699463,724.405518 635.713074,725.679199 635.039856,728.625671 
	C631.668457,729.438416 629.651733,724.425415 625.672241,727.431213 
	C630.208618,732.317139 631.254822,740.083618 639.860901,742.202087 
	C637.286804,746.431335 633.287231,748.201416 629.164185,750.523132 
	C629.367310,741.922791 623.313660,737.783569 619.425537,732.297546 
	C615.168030,734.676086 619.544006,738.268982 617.385681,740.596741 
	C611.201172,737.263855 610.553467,733.414856 615.788940,729.846680 
	C620.422974,726.688599 624.436829,722.533508 630.296509,720.704102 
z"/>
<path fill="#000000" opacity="1.000000" stroke="none" 
	d="
M547.652649,757.544067 
	C550.810364,756.824707 553.558533,756.186401 556.312744,755.575562 
	C562.531494,754.196228 565.098389,757.188660 563.234131,763.949036 
	C560.364380,763.126160 560.028381,758.582214 556.346741,759.120728 
	C555.287231,764.781372 558.525818,775.122070 562.967590,778.755859 
	C558.885254,781.255066 554.703552,781.585571 549.920044,782.163940 
	C553.512817,774.210388 548.998230,767.990845 548.160095,761.098145 
	C543.493408,762.130005 545.143982,766.285217 543.199280,768.668091 
	C539.603943,767.125183 540.150330,763.504517 540.384827,761.129211 
	C540.743591,757.494934 544.850830,758.721313 547.652649,757.544067 
z"/>
</svg>